<svg width="15" height="14" viewBox="0 0 15 14" fill="none" xmlns="http://www.w3.org/2000/svg">
<path d="M13.3333 2.0835C13.5625 2.0835 13.75 2.271 13.75 2.50016V10.8335C13.75 11.0627 13.5625 11.2502 13.3333 11.2502H1.66667C1.4375 11.2502 1.25 11.0627 1.25 10.8335V2.50016C1.25 2.271 1.4375 2.0835 1.66667 2.0835H13.3333ZM1.66667 0.833496C0.747396 0.833496 0 1.58089 0 2.50016V10.8335C0 11.7528 0.747396 12.5002 1.66667 12.5002H13.3333C14.2526 12.5002 15 11.7528 15 10.8335V2.50016C15 1.58089 14.2526 0.833496 13.3333 0.833496H1.66667ZM5.41667 6.66683C5.85869 6.66683 6.28262 6.49123 6.59518 6.17867C6.90774 5.86611 7.08333 5.44219 7.08333 5.00016C7.08333 4.55814 6.90774 4.13421 6.59518 3.82165C6.28262 3.50909 5.85869 3.3335 5.41667 3.3335C4.97464 3.3335 4.55072 3.50909 4.23816 3.82165C3.92559 4.13421 3.75 4.55814 3.75 5.00016C3.75 5.44219 3.92559 5.86611 4.23816 6.17867C4.55072 6.49123 4.97464 6.66683 5.41667 6.66683ZM4.58333 7.50016C3.43229 7.50016 2.5 8.43245 2.5 9.5835C2.5 9.81266 2.6875 10.0002 2.91667 10.0002H7.91667C8.14583 10.0002 8.33333 9.81266 8.33333 9.5835C8.33333 8.43245 7.40104 7.50016 6.25 7.50016H4.58333ZM9.79167 3.75016C9.44531 3.75016 9.16667 4.02881 9.16667 4.37516C9.16667 4.72152 9.44531 5.00016 9.79167 5.00016H11.875C12.2214 5.00016 12.5 4.72152 12.5 4.37516C12.5 4.02881 12.2214 3.75016 11.875 3.75016H9.79167ZM9.79167 6.25016C9.44531 6.25016 9.16667 6.52881 9.16667 6.87516C9.16667 7.22152 9.44531 7.50016 9.79167 7.50016H11.875C12.2214 7.50016 12.5 7.22152 12.5 6.87516C12.5 6.52881 12.2214 6.25016 11.875 6.25016H9.79167Z" fill="white"/>
</svg>
