<svg width="22" height="22" viewBox="0 0 22 22" fill="none" xmlns="http://www.w3.org/2000/svg">
<path d="M18.3333 9.16658L18.9815 9.81475L19.6296 9.16658L18.9815 8.51839L18.3333 9.16658ZM2.74995 16.4999C2.74995 17.0062 3.16034 17.4166 3.66662 17.4166C4.17289 17.4166 4.58328 17.0062 4.58328 16.4999H2.74995ZM14.3981 14.3981L18.9815 9.81475L17.6851 8.51839L13.1018 13.1017L14.3981 14.3981ZM18.9815 8.51839L14.3981 3.93506L13.1018 5.23143L17.6851 9.81475L18.9815 8.51839ZM18.3333 8.24991H9.16661V10.0832H18.3333V8.24991ZM2.74995 14.6666V16.4999H4.58328V14.6666H2.74995ZM9.16661 8.24991C5.62278 8.24991 2.74995 11.1227 2.74995 14.6666H4.58328C4.58328 12.1353 6.63533 10.0832 9.16661 10.0832V8.24991Z" fill="#0D2E4F"/>
</svg>
