<svg width="15" height="15" viewBox="0 0 15 15" fill="none" xmlns="http://www.w3.org/2000/svg">
<g clip-path="url(#clip0_628_432)">
<path fill-rule="evenodd" clip-rule="evenodd" d="M4.04175 0V4.98617H4.87508V0.831031H11.6667V4.98617V5L11.7031 4.99654L12.5001 5V4.98617V0H4.04175Z" fill="white"/>
<path fill-rule="evenodd" clip-rule="evenodd" d="M0 1.66211H3.20834V2.49573H0.835938V13.7496C0.835938 13.9797 1.02402 14.1665 1.2539 14.1665H12.1327C12.3309 14.1665 12.503 14.0255 12.5423 13.8313L13.9793 6.66384H4.65525L2.6582 13.0402L1.85988 12.7918L4.04167 5.83022H15L13.3624 13.9947C13.2454 14.5774 12.728 15.0001 12.1327 15.0001H1.2539C0.562584 15.0001 0 14.439 0 13.7496V1.66211Z" fill="white"/>
<path fill-rule="evenodd" clip-rule="evenodd" d="M5.41675 3.32418C5.41675 2.63573 5.9764 2.07764 6.66675 2.07764C7.35711 2.07764 7.91672 2.63573 7.91672 3.32418C7.91672 4.01262 7.35711 4.57072 6.66675 4.57072C5.9764 4.57072 5.41675 4.01262 5.41675 3.32418ZM6.66675 2.90867C6.43663 2.90867 6.25008 3.0947 6.25008 3.32418C6.25008 3.55366 6.43663 3.73969 6.66675 3.73969C6.89687 3.73969 7.08342 3.55366 7.08342 3.32418C7.08342 3.0947 6.89687 2.90867 6.66675 2.90867Z" fill="white"/>
<path fill-rule="evenodd" clip-rule="evenodd" d="M10.8334 2.90869H8.75V3.73971H10.8334V2.90869Z" fill="white"/>
</g>
<defs>
<clipPath id="clip0_628_432">
<rect width="15" height="15" fill="white"/>
</clipPath>
</defs>
</svg>
