<svg width="27" height="27" viewBox="0 0 27 27" fill="none" xmlns="http://www.w3.org/2000/svg" stroke="#fff" stroke-width="2">
<path d="M19.875 8.8335C19.875 7.07644 19.177 5.39134 17.9346 4.14891C16.6922 2.90649 15.0071 2.2085 13.25 2.2085C11.4929 2.2085 9.80785 2.90649 8.56542 4.14891C7.32299 5.39134 6.625 7.07644 6.625 8.8335C6.625 16.5627 3.3125 18.771 3.3125 18.771H23.1875C23.1875 18.771 19.875 16.5627 19.875 8.8335Z" stroke="#fff" stroke-width="2" stroke-linecap="round" stroke-linejoin="round"/>
<path d="M15.1602 23.1875C14.9661 23.5221 14.6874 23.7999 14.3522 23.993C14.017 24.1861 13.6369 24.2878 13.25 24.2878C12.8631 24.2878 12.483 24.1861 12.1478 23.993C11.8125 23.7999 11.5339 23.5221 11.3398 23.1875" stroke="#fff" stroke-width="2" stroke-linecap="round" stroke-linejoin="round"/>
</svg>
