<svg width="14" height="15" viewBox="0 0 14 15" fill="none" xmlns="http://www.w3.org/2000/svg">
<g clip-path="url(#clip0_580_509)">
<path d="M2.33333 1.40625C2.0125 1.40625 1.75 1.61719 1.75 1.875V13.125C1.75 13.3828 2.0125 13.5938 2.33333 13.5938H5.25V11.7188C5.25 10.9424 6.03385 10.3125 7 10.3125C7.96615 10.3125 8.75 10.9424 8.75 11.7188V13.5938H11.6667C11.9875 13.5938 12.25 13.3828 12.25 13.125V1.875C12.25 1.61719 11.9875 1.40625 11.6667 1.40625H2.33333ZM0 1.875C0 0.84082 1.04635 0 2.33333 0H11.6667C12.9536 0 14 0.84082 14 1.875V13.125C14 14.1592 12.9536 15 11.6667 15H2.33333C1.04635 15 0 14.1592 0 13.125V1.875ZM3.20833 3.04688C3.20833 2.78906 3.47083 2.57812 3.79167 2.57812H5.54167C5.8625 2.57812 6.125 2.78906 6.125 3.04688V4.45312C6.125 4.71094 5.8625 4.92188 5.54167 4.92188H3.79167C3.47083 4.92188 3.20833 4.71094 3.20833 4.45312V3.04688ZM8.45833 2.57812H10.2083C10.5292 2.57812 10.7917 2.78906 10.7917 3.04688V4.45312C10.7917 4.71094 10.5292 4.92188 10.2083 4.92188H8.45833C8.1375 4.92188 7.875 4.71094 7.875 4.45312V3.04688C7.875 2.78906 8.1375 2.57812 8.45833 2.57812ZM3.20833 6.79688C3.20833 6.53906 3.47083 6.32812 3.79167 6.32812H5.54167C5.8625 6.32812 6.125 6.53906 6.125 6.79688V8.20312C6.125 8.46094 5.8625 8.67188 5.54167 8.67188H3.79167C3.47083 8.67188 3.20833 8.46094 3.20833 8.20312V6.79688ZM8.45833 6.32812H10.2083C10.5292 6.32812 10.7917 6.53906 10.7917 6.79688V8.20312C10.7917 8.46094 10.5292 8.67188 10.2083 8.67188H8.45833C8.1375 8.67188 7.875 8.46094 7.875 8.20312V6.79688C7.875 6.53906 8.1375 6.32812 8.45833 6.32812Z" fill="white"/>
</g>
<defs>
<clipPath id="clip0_580_509">
<rect width="14" height="15" fill="white"/>
</clipPath>
</defs>
</svg>
