<svg width="49" height="54" viewBox="0 0 49 54" fill="none" xmlns="http://www.w3.org/2000/svg">
<g clip-path="url(#clip0_577_490)" filter="url(#filter0_d_577_490)">
<path d="M39.8125 3.0625H12.25C11.4378 3.0625 10.6588 3.38516 10.0845 3.95949C9.51016 4.53382 9.1875 5.31277 9.1875 6.125V12.25H6.125V15.3125H9.1875V22.9688H6.125V26.0312H9.1875V33.6875H6.125V36.75H9.1875V42.875C9.1875 43.6872 9.51016 44.4662 10.0845 45.0405C10.6588 45.6148 11.4378 45.9375 12.25 45.9375H39.8125C40.6247 45.9375 41.4037 45.6148 41.978 45.0405C42.5523 44.4662 42.875 43.6872 42.875 42.875V6.125C42.875 5.31277 42.5523 4.53382 41.978 3.95949C41.4037 3.38516 40.6247 3.0625 39.8125 3.0625ZM39.8125 42.875H12.25V36.75H15.3125V33.6875H12.25V26.0312H15.3125V22.9688H12.25V15.3125H15.3125V12.25H12.25V6.125H39.8125V42.875Z" fill="white"/>
<path d="M33.6875 12.25H21.4375V15.3125H33.6875V12.25Z" fill="white"/>
<path d="M33.6875 22.9688H21.4375V26.0312H33.6875V22.9688Z" fill="white"/>
<path d="M33.6875 33.6875H21.4375V36.75H33.6875V33.6875Z" fill="white"/>
</g>
<defs>
<filter id="filter0_d_577_490" x="-4" y="0" width="57" height="57" filterUnits="userSpaceOnUse" color-interpolation-filters="sRGB">
<feFlood flood-opacity="0" result="BackgroundImageFix"/>
<feColorMatrix in="SourceAlpha" type="matrix" values="0 0 0 0 0 0 0 0 0 0 0 0 0 0 0 0 0 0 127 0" result="hardAlpha"/>
<feOffset dy="4"/>
<feGaussianBlur stdDeviation="2"/>
<feComposite in2="hardAlpha" operator="out"/>
<feColorMatrix type="matrix" values="0 0 0 0 0 0 0 0 0 0 0 0 0 0 0 0 0 0 0.25 0"/>
<feBlend mode="normal" in2="BackgroundImageFix" result="effect1_dropShadow_577_490"/>
<feBlend mode="normal" in="SourceGraphic" in2="effect1_dropShadow_577_490" result="shape"/>
</filter>
<clipPath id="clip0_577_490">
<rect width="49" height="49" fill="white"/>
</clipPath>
</defs>
</svg>
