<svg width="11" height="11" viewBox="0 0 11 11" fill="none" xmlns="http://www.w3.org/2000/svg">
<g opacity="0.14" clip-path="url(#clip0_55_313)">
<path d="M5.50008 10.0834C4.86605 10.0834 4.27022 9.9631 3.71258 9.72248C3.15494 9.48185 2.66987 9.15529 2.25737 8.74279C1.84487 8.33029 1.51831 7.84522 1.27769 7.28758C1.03706 6.72994 0.916748 6.13411 0.916748 5.50008C0.916748 4.86605 1.03706 4.27022 1.27769 3.71258C1.51831 3.15494 1.84487 2.66987 2.25737 2.25737C2.66987 1.84487 3.15494 1.51831 3.71258 1.27769C4.27022 1.03706 4.86605 0.916748 5.50008 0.916748C6.13411 0.916748 6.72994 1.03706 7.28758 1.27769C7.84522 1.51831 8.33029 1.84487 8.74279 2.25737C9.15529 2.66987 9.48185 3.15494 9.72248 3.71258C9.9631 4.27022 10.0834 4.86605 10.0834 5.50008C10.0834 6.13411 9.9631 6.72994 9.72248 7.28758C9.48185 7.84522 9.15529 8.33029 8.74279 8.74279C8.33029 9.15529 7.84522 9.48185 7.28758 9.72248C6.72994 9.9631 6.13411 10.0834 5.50008 10.0834ZM5.50008 9.16675C6.52369 9.16675 7.39071 8.81154 8.10112 8.10112C8.81154 7.39071 9.16675 6.52369 9.16675 5.50008C9.16675 4.47647 8.81154 3.60946 8.10112 2.89904C7.39071 2.18862 6.52369 1.83341 5.50008 1.83341C4.47647 1.83341 3.60946 2.18862 2.89904 2.89904C2.18862 3.60946 1.83341 4.47647 1.83341 5.50008C1.83341 6.52369 2.18862 7.39071 2.89904 8.10112C3.60946 8.81154 4.47647 9.16675 5.50008 9.16675Z" fill="white"/>
</g>
<defs>
<clipPath id="clip0_55_313">
<rect width="11" height="11" fill="white"/>
</clipPath>
</defs>
</svg>
