<svg width="25" height="26" viewBox="0 0 25 26" fill="none" xmlns="http://www.w3.org/2000/svg">
<g clip-path="url(#clip0_597_430)">
<path d="M12.5 26C15.8152 26 18.9946 24.6304 21.3388 22.1924C23.683 19.7544 25 16.4478 25 13C25 9.55219 23.683 6.24558 21.3388 3.80761C18.9946 1.36964 15.8152 0 12.5 0C9.18479 0 6.00537 1.36964 3.66117 3.80761C1.31696 6.24558 0 9.55219 0 13C0 16.4478 1.31696 19.7544 3.66117 22.1924C6.00537 24.6304 9.18479 26 12.5 26ZM11.3281 17.4688V14.2188H8.20312C7.55371 14.2188 7.03125 13.6754 7.03125 13C7.03125 12.3246 7.55371 11.7812 8.20312 11.7812H11.3281V8.53125C11.3281 7.85586 11.8506 7.3125 12.5 7.3125C13.1494 7.3125 13.6719 7.85586 13.6719 8.53125V11.7812H16.7969C17.4463 11.7812 17.9688 12.3246 17.9688 13C17.9688 13.6754 17.4463 14.2188 16.7969 14.2188H13.6719V17.4688C13.6719 18.1441 13.1494 18.6875 12.5 18.6875C11.8506 18.6875 11.3281 18.1441 11.3281 17.4688Z" fill="#0D3253"/>
</g>
<defs>
<clipPath id="clip0_597_430">
<rect width="25" height="26" fill="white"/>
</clipPath>
</defs>
</svg>
