<svg width="16" height="17" viewBox="0 0 16 17" fill="none" xmlns="http://www.w3.org/2000/svg">
<path d="M1.53711 16.75V15.25H13.5371V16.75H1.53711ZM1.53711 1.75V0.25H13.5371V1.75H1.53711ZM7.53711 9.25C8.16211 9.25 8.69336 9.03125 9.13086 8.59375C9.56836 8.15625 9.78711 7.625 9.78711 7C9.78711 6.375 9.56836 5.84375 9.13086 5.40625C8.69336 4.96875 8.16211 4.75 7.53711 4.75C6.91211 4.75 6.38086 4.96875 5.94336 5.40625C5.50586 5.84375 5.28711 6.375 5.28711 7C5.28711 7.625 5.50586 8.15625 5.94336 8.59375C6.38086 9.03125 6.91211 9.25 7.53711 9.25ZM1.53711 14.5C1.12461 14.5 0.771484 14.3531 0.477734 14.0594C0.183984 13.7656 0.0371094 13.4125 0.0371094 13V4C0.0371094 3.5875 0.183984 3.23438 0.477734 2.94063C0.771484 2.64688 1.12461 2.5 1.53711 2.5H13.5371C13.9496 2.5 14.3027 2.64688 14.5965 2.94063C14.8902 3.23438 15.0371 3.5875 15.0371 4V13C15.0371 13.4125 14.8902 13.7656 14.5965 14.0594C14.3027 14.3531 13.9496 14.5 13.5371 14.5H1.53711ZM2.84961 13C3.41211 12.3 4.09336 11.75 4.89336 11.35C5.69336 10.95 6.57461 10.75 7.53711 10.75C8.49961 10.75 9.38086 10.95 10.1809 11.35C10.9809 11.75 11.6621 12.3 12.2246 13H13.5371V4H1.53711V13H2.84961ZM5.06211 13H10.0121C9.64961 12.75 9.25898 12.5625 8.84023 12.4375C8.42148 12.3125 7.98711 12.25 7.53711 12.25C7.08711 12.25 6.65273 12.3125 6.23398 12.4375C5.81523 12.5625 5.42461 12.75 5.06211 13ZM7.53711 7.75C7.32461 7.75 7.14648 7.67813 7.00273 7.53438C6.85898 7.39063 6.78711 7.2125 6.78711 7C6.78711 6.7875 6.85898 6.60938 7.00273 6.46563C7.14648 6.32188 7.32461 6.25 7.53711 6.25C7.74961 6.25 7.92773 6.32188 8.07148 6.46563C8.21523 6.60938 8.28711 6.7875 8.28711 7C8.28711 7.2125 8.21523 7.39063 8.07148 7.53438C7.92773 7.67813 7.74961 7.75 7.53711 7.75Z" fill="white"/>
</svg>
