<svg width="65" height="65" viewBox="0 0 65 65" fill="none" xmlns="http://www.w3.org/2000/svg">
<path d="M5.41658 56.875H27.0832C27.8015 56.875 28.4904 56.5897 28.9983 56.0818C29.5062 55.5739 29.7916 54.885 29.7916 54.1667C29.7916 53.4484 29.5062 52.7595 28.9983 52.2516C28.4904 51.7437 27.8015 51.4584 27.0832 51.4584H8.31721C8.9744 46.9485 11.2317 42.8255 14.677 39.8421C18.1224 36.8587 22.5258 35.214 27.0832 35.2084C30.2722 35.236 33.3704 34.1471 35.8408 32.1303C38.3113 30.1135 39.9982 27.2959 40.6094 24.1659C41.2205 21.0359 40.7173 17.7907 39.187 14.9927C37.6566 12.1948 35.1956 10.0204 32.2304 8.84646C29.2653 7.6725 25.9828 7.57295 22.9519 8.56507C19.9211 9.55718 17.3328 11.5784 15.6357 14.2785C13.9387 16.9786 13.2397 20.1873 13.6601 23.3486C14.0804 26.5099 15.5935 29.4245 17.9372 31.5873C13.4419 33.4109 9.59221 36.533 6.87964 40.5548C4.16708 44.5766 2.7148 49.3156 2.70825 54.1667C2.70825 54.885 2.99359 55.5739 3.5015 56.0818C4.00942 56.5897 4.69829 56.875 5.41658 56.875ZM27.0832 13.5417C28.6902 13.5417 30.2611 14.0182 31.5973 14.911C32.9334 15.8038 33.9748 17.0727 34.5898 18.5574C35.2047 20.042 35.3656 21.6757 35.0521 23.2518C34.7386 24.8279 33.9648 26.2756 32.8285 27.4119C31.6922 28.5482 30.2445 29.3221 28.6684 29.6356C27.0923 29.9491 25.4586 29.7882 23.9739 29.1732C22.4893 28.5583 21.2203 27.5169 20.3276 26.1807C19.4348 24.8446 18.9582 23.2737 18.9582 21.6667C18.9582 19.5118 19.8143 17.4452 21.338 15.9215C22.8617 14.3977 24.9284 13.5417 27.0832 13.5417ZM62.2916 36.5625V50.1042C62.2916 50.4633 62.1489 50.8078 61.8949 51.0617C61.641 51.3157 61.2966 51.4584 60.9374 51.4584H58.2291V56.875L51.4582 51.4584H39.2707C38.9116 51.4584 38.5672 51.3157 38.3132 51.0617C38.0592 50.8078 37.9166 50.4633 37.9166 50.1042V36.5625C37.9166 36.2034 38.0592 35.8589 38.3132 35.605C38.5672 35.351 38.9116 35.2084 39.2707 35.2084H60.9374C61.2966 35.2084 61.641 35.351 61.8949 35.605C62.1489 35.8589 62.2916 36.2034 62.2916 36.5625Z" fill="white"/>
</svg>
