<svg width="27" height="27" viewBox="0 0 27 27" fill="none" xmlns="http://www.w3.org/2000/svg">
<path d="M9.875 15.7813C9.48125 15.7813 9.14844 15.6453 8.87656 15.3734C8.60469 15.1016 8.46875 14.7688 8.46875 14.375C8.46875 13.9813 8.60469 13.6484 8.87656 13.3766C9.14844 13.1047 9.48125 12.9688 9.875 12.9688C10.2688 12.9688 10.6016 13.1047 10.8734 13.3766C11.1453 13.6484 11.2813 13.9813 11.2813 14.375C11.2813 14.7688 11.1453 15.1016 10.8734 15.3734C10.6016 15.6453 10.2688 15.7813 9.875 15.7813ZM16.625 15.7813C16.2313 15.7813 15.8984 15.6453 15.6266 15.3734C15.3547 15.1016 15.2188 14.7688 15.2188 14.375C15.2188 13.9813 15.3547 13.6484 15.6266 13.3766C15.8984 13.1047 16.2313 12.9688 16.625 12.9688C17.0188 12.9688 17.3516 13.1047 17.6234 13.3766C17.8953 13.6484 18.0313 13.9813 18.0313 14.375C18.0313 14.7688 17.8953 15.1016 17.6234 15.3734C17.3516 15.6453 17.0188 15.7813 16.625 15.7813ZM13.25 22.25C15.7625 22.25 17.8906 21.3781 19.6344 19.6344C21.3781 17.8906 22.25 15.7625 22.25 13.25C22.25 12.8 22.2219 12.3641 22.1656 11.9422C22.1094 11.5203 22.0063 11.1125 21.8563 10.7188C21.4625 10.8125 21.0688 10.8828 20.675 10.9297C20.2813 10.9766 19.8688 11 19.4375 11C17.7313 11 16.1188 10.6344 14.6 9.90313C13.0813 9.17188 11.7875 8.15 10.7188 6.8375C10.1188 8.3 9.26094 9.57031 8.14531 10.6484C7.02969 11.7266 5.73125 12.5375 4.25 13.0813V13.25C4.25 15.7625 5.12188 17.8906 6.86563 19.6344C8.60938 21.3781 10.7375 22.25 13.25 22.25ZM13.25 24.5C11.6938 24.5 10.2313 24.2047 8.8625 23.6141C7.49375 23.0234 6.30313 22.2219 5.29063 21.2094C4.27813 20.1969 3.47656 19.0063 2.88594 17.6375C2.29531 16.2688 2 14.8063 2 13.25C2 11.6938 2.29531 10.2313 2.88594 8.8625C3.47656 7.49375 4.27813 6.30313 5.29063 5.29063C6.30313 4.27813 7.49375 3.47656 8.8625 2.88594C10.2313 2.29531 11.6938 2 13.25 2C14.8063 2 16.2688 2.29531 17.6375 2.88594C19.0063 3.47656 20.1969 4.27813 21.2094 5.29063C22.2219 6.30313 23.0234 7.49375 23.6141 8.8625C24.2047 10.2313 24.5 11.6938 24.5 13.25C24.5 14.8063 24.2047 16.2688 23.6141 17.6375C23.0234 19.0063 22.2219 20.1969 21.2094 21.2094C20.1969 22.2219 19.0063 23.0234 17.6375 23.6141C16.2688 24.2047 14.8063 24.5 13.25 24.5ZM11.7313 4.39063C12.5188 5.70313 13.5875 6.75781 14.9375 7.55469C16.2875 8.35156 17.7875 8.75 19.4375 8.75C19.7 8.75 19.9531 8.73594 20.1969 8.70781C20.4406 8.67969 20.6938 8.64688 20.9563 8.60938C20.1688 7.29688 19.1 6.24219 17.75 5.44531C16.4 4.64844 14.9 4.25 13.25 4.25C12.9875 4.25 12.7344 4.26406 12.4906 4.29219C12.2469 4.32031 11.9938 4.35313 11.7313 4.39063ZM4.72813 10.4094C5.68438 9.86563 6.51875 9.1625 7.23125 8.3C7.94375 7.4375 8.47813 6.47188 8.83438 5.40313C7.87813 5.94688 7.04375 6.65 6.33125 7.5125C5.61875 8.375 5.08438 9.34063 4.72813 10.4094Z" fill="#0F5380"/>
</svg>
