<svg width="13" height="17" viewBox="0 0 13 17" fill="none" xmlns="http://www.w3.org/2000/svg">
<g clip-path="url(#clip0_127_5135)">
<path d="M2.16667 0C0.971615 0 0 0.95293 0 2.125V14.875C0 16.0471 0.971615 17 2.16667 17H10.8333C12.0284 17 13 16.0471 13 14.875V5.3125H8.66667C8.06745 5.3125 7.58333 4.8377 7.58333 4.25V0H2.16667ZM8.66667 0V4.25H13L8.66667 0ZM5.27109 8.30742L6.5 10.0307L7.72891 8.30742C7.9862 7.94551 8.49401 7.85918 8.85964 8.11152C9.22526 8.36387 9.31667 8.86191 9.05938 9.22051L7.49193 11.4219L9.06276 13.6199C9.32005 13.9818 9.23203 14.4766 8.86302 14.7289C8.49401 14.9812 7.98958 14.8949 7.73229 14.533L6.5 12.8098L5.27109 14.533C5.0138 14.8949 4.50599 14.9812 4.14036 14.7289C3.77474 14.4766 3.68333 13.9785 3.94063 13.6199L5.50807 11.4219L3.93724 9.22383C3.67995 8.86191 3.76797 8.36719 4.13698 8.11484C4.50599 7.8625 5.01042 7.94883 5.26771 8.31074L5.27109 8.30742Z" fill="#0F5380"/>
</g>
<defs>
<clipPath id="clip0_127_5135">
<rect width="13" height="17" fill="white"/>
</clipPath>
</defs>
</svg>
