<svg width="25" height="25" viewBox="0 0 25 25" fill="none" xmlns="http://www.w3.org/2000/svg">
<path d="M11.4583 20.8334C11.1632 20.8334 10.9158 20.7336 10.7161 20.5339C10.5165 20.3343 10.4166 20.0869 10.4166 19.7917V13.5417L4.37498 5.83341C4.11457 5.48619 4.0755 5.12161 4.25779 4.73966C4.44009 4.35772 4.75693 4.16675 5.20832 4.16675H19.7916C20.243 4.16675 20.5599 4.35772 20.7422 4.73966C20.9245 5.12161 20.8854 5.48619 20.625 5.83341L14.5833 13.5417V19.7917C14.5833 20.0869 14.4835 20.3343 14.2838 20.5339C14.0842 20.7336 13.8368 20.8334 13.5416 20.8334H11.4583ZM12.5 12.8126L17.6562 6.25008H7.34373L12.5 12.8126Z" fill="#0D3458"/>
</svg>
