<svg width="25" height="25" viewBox="0 0 25 25" fill="none" xmlns="http://www.w3.org/2000/svg">
<path d="M11.4583 20.8333C11.1632 20.8333 10.9158 20.7335 10.7161 20.5338C10.5165 20.3342 10.4166 20.0868 10.4166 19.7916V13.5416L4.37498 5.83329C4.11457 5.48607 4.0755 5.12149 4.25779 4.73954C4.44009 4.3576 4.75693 4.16663 5.20832 4.16663H19.7916C20.243 4.16663 20.5599 4.3576 20.7422 4.73954C20.9245 5.12149 20.8854 5.48607 20.625 5.83329L14.5833 13.5416V19.7916C14.5833 20.0868 14.4835 20.3342 14.2838 20.5338C14.0842 20.7335 13.8368 20.8333 13.5416 20.8333H11.4583ZM12.5 12.8125L17.6562 6.24996H7.34373L12.5 12.8125Z" fill="white"/>
</svg>
