<svg width="15" height="13" viewBox="0 0 15 13" fill="none" xmlns="http://www.w3.org/2000/svg">
<g clip-path="url(#clip0_580_521)">
<path d="M7.23049 3.22064C7.3969 3.07068 7.46253 2.83502 7.37581 2.62555C7.3219 2.49939 7.26331 2.37561 7.19768 2.25659L7.12503 2.12805C7.05471 2.00903 6.97737 1.8924 6.89534 1.78052C6.76174 1.59961 6.52737 1.5401 6.31643 1.61151L5.65549 1.83289C5.40471 1.62341 5.11643 1.45203 4.80706 1.33539L4.66409 0.645081C4.61956 0.423706 4.45081 0.247559 4.23049 0.221375C4.07581 0.199951 3.91877 0.19043 3.7594 0.19043H3.74299C3.58362 0.19043 3.42659 0.199951 3.2719 0.218994C3.05159 0.245178 2.88284 0.423706 2.83831 0.6427L2.69534 1.33539C2.38362 1.45441 2.09768 1.62341 1.8469 1.83289L1.18362 1.61389C0.972681 1.54248 0.738306 1.60199 0.604712 1.7829C0.522681 1.89478 0.445338 2.01141 0.372681 2.13043L0.302369 2.25659C0.236744 2.37561 0.17815 2.49939 0.124244 2.62793C0.037525 2.83502 0.10315 3.07068 0.269556 3.22302L0.789869 3.69434C0.764087 3.85382 0.750025 4.02045 0.750025 4.18945C0.750025 4.35846 0.764087 4.52509 0.789869 4.68695L0.269556 5.15826C0.10315 5.30823 0.037525 5.54388 0.124244 5.75336C0.17815 5.87952 0.236744 6.0033 0.302369 6.12469L0.372681 6.24847C0.442994 6.36987 0.520337 6.48413 0.604712 6.59601C0.738306 6.77692 0.972681 6.83643 1.18362 6.76502L1.84456 6.54364C2.09534 6.75311 2.38362 6.9245 2.69299 7.04114L2.83596 7.73383C2.88049 7.9552 3.04924 8.13135 3.26956 8.15753C3.42659 8.17658 3.58596 8.1861 3.74768 8.1861C3.9094 8.1861 4.06877 8.17658 4.22581 8.15753C4.44612 8.13135 4.61487 7.95282 4.6594 7.73383L4.80237 7.04114C5.11409 6.92212 5.40002 6.75311 5.65081 6.54364L6.31174 6.76502C6.52268 6.83643 6.75706 6.77692 6.89065 6.59601C6.97268 6.48413 7.05002 6.36987 7.12034 6.24847L7.19299 6.11993C7.25862 6.00092 7.31721 5.87714 7.37112 5.75098C7.45784 5.54388 7.39221 5.30823 7.22581 5.15588L6.70549 4.68457C6.73128 4.52271 6.74534 4.35608 6.74534 4.18707C6.74534 4.01807 6.73128 3.85144 6.70549 3.68958L7.22581 3.21826L7.23049 3.22064ZM2.62503 4.18945C2.62503 3.88642 2.74355 3.5958 2.95453 3.38153C3.16551 3.16725 3.45166 3.04688 3.75002 3.04688C4.04839 3.04688 4.33454 3.16725 4.54552 3.38153C4.7565 3.5958 4.87502 3.88642 4.87502 4.18945C4.87502 4.49248 4.7565 4.7831 4.54552 4.99738C4.33454 5.21165 4.04839 5.33203 3.75002 5.33203C3.45166 5.33203 3.16551 5.21165 2.95453 4.99738C2.74355 4.7831 2.62503 4.49248 2.62503 4.18945ZM11.8289 11.9138C11.9766 12.0828 12.2086 12.1494 12.4149 12.0613C12.5391 12.0066 12.661 11.9471 12.7782 11.8804L12.9047 11.8066C13.0219 11.7352 13.1367 11.6567 13.2469 11.5734C13.425 11.4377 13.4836 11.1996 13.4133 10.9854L13.1953 10.3141C13.4016 10.0594 13.5703 9.76666 13.6852 9.45245L14.3672 9.30725C14.5852 9.26202 14.7586 9.09064 14.7844 8.86688C14.8032 8.7074 14.8125 8.54553 14.8125 8.38129C14.8125 8.21704 14.8032 8.05518 14.7844 7.89569C14.7586 7.67194 14.5828 7.50055 14.3672 7.45532L13.6852 7.30774C13.568 6.99115 13.4016 6.70074 13.1953 6.44604L13.4133 5.77478C13.4836 5.56055 13.425 5.32251 13.2469 5.18683C13.1367 5.10352 13.0219 5.02496 12.9047 4.95117L12.7805 4.87976C12.6633 4.81311 12.5414 4.7536 12.4149 4.69885C12.211 4.61078 11.9789 4.67743 11.8289 4.84644L11.3649 5.37488C11.2055 5.34869 11.0414 5.33441 10.875 5.33441C10.7086 5.33441 10.5446 5.34869 10.3852 5.37488L9.92112 4.84644C9.77346 4.67743 9.54143 4.61078 9.33518 4.69885C9.21096 4.7536 9.08909 4.81311 8.96956 4.87976L8.84768 4.95117C8.72815 5.02258 8.61565 5.10114 8.50549 5.18683C8.32737 5.32251 8.26877 5.56055 8.33909 5.77478L8.55706 6.44604C8.35081 6.70074 8.18206 6.99353 8.06721 7.30774L7.38518 7.45056C7.16721 7.49579 6.99377 7.66718 6.96799 7.89093C6.94924 8.05042 6.93987 8.21228 6.93987 8.37653C6.93987 8.54077 6.94924 8.70264 6.96799 8.86212C6.99377 9.08588 7.16956 9.25726 7.38518 9.30249L8.06721 9.44769C8.1844 9.76428 8.35081 10.0547 8.55706 10.3094L8.33909 10.9807C8.26877 11.1949 8.32737 11.4329 8.50549 11.5686C8.61565 11.6519 8.72815 11.7305 8.84768 11.8019L8.97424 11.8757C9.09143 11.9423 9.21331 12.0018 9.33753 12.0566C9.54143 12.1447 9.77346 12.078 9.92346 11.909L10.3875 11.3806C10.5469 11.4067 10.711 11.421 10.8774 11.421C11.0438 11.421 11.2078 11.4067 11.3672 11.3806L11.8313 11.909L11.8289 11.9138ZM10.875 7.23633C11.0228 7.23633 11.1691 7.26588 11.3055 7.3233C11.442 7.38072 11.5661 7.46488 11.6705 7.57098C11.775 7.67708 11.8579 7.80304 11.9144 7.94166C11.9709 8.08028 12 8.22886 12 8.37891C12 8.52895 11.9709 8.67753 11.9144 8.81615C11.8579 8.95478 11.775 9.08073 11.6705 9.18683C11.5661 9.29293 11.442 9.37709 11.3055 9.43451C11.1691 9.49193 11.0228 9.52148 10.875 9.52148C10.7273 9.52148 10.581 9.49193 10.4445 9.43451C10.308 9.37709 10.184 9.29293 10.0795 9.18683C9.97506 9.08073 9.8922 8.95478 9.83566 8.81615C9.77912 8.67753 9.75002 8.52895 9.75002 8.37891C9.75002 8.22886 9.77912 8.08028 9.83566 7.94166C9.8922 7.80304 9.97506 7.67708 10.0795 7.57098C10.184 7.46488 10.308 7.38072 10.4445 7.3233C10.581 7.26588 10.7273 7.23633 10.875 7.23633Z" fill="white"/>
</g>
<defs>
<clipPath id="clip0_580_521">
<rect width="15" height="12.1875" fill="white"/>
</clipPath>
</defs>
</svg>
