<svg width="24" height="23" viewBox="0 0 24 23" fill="none" xmlns="http://www.w3.org/2000/svg">
<g clip-path="url(#clip0_568_426)">
<path d="M20.6719 2.64585L21.2391 3.1894C21.6797 3.61167 21.6797 4.29448 21.2391 4.71226L19.875 6.02398L17.7141 3.95308L19.0781 2.64585C19.5188 2.22358 20.2313 2.22358 20.6672 2.64585H20.6719ZM9.83438 11.5089L16.125 5.47593L18.2859 7.54683L11.9906 13.5753C11.8547 13.7056 11.6859 13.8 11.5031 13.8494L8.76094 14.5996L9.54375 11.9716C9.59531 11.7964 9.69375 11.6347 9.82969 11.5044L9.83438 11.5089ZM17.4891 1.123L8.24063 9.98159C7.83281 10.3724 7.5375 10.8531 7.38281 11.3787L6.04219 15.8709C5.92969 16.2482 6.0375 16.6525 6.32813 16.931C6.61875 17.2095 7.04063 17.3128 7.43438 17.205L12.1219 15.9203C12.675 15.7675 13.1766 15.4845 13.5797 15.0982L22.8281 6.2396C24.1453 4.97729 24.1453 2.92886 22.8281 1.66655L22.2609 1.123C20.9438 -0.139307 18.8063 -0.139307 17.4891 1.123ZM4.125 2.87495C1.84688 2.87495 0 4.64487 0 6.82808V19.0468C0 21.23 1.84688 23 4.125 23H16.875C19.1531 23 21 21.23 21 19.0468V14.0156C21 13.4181 20.4984 12.9375 19.875 12.9375C19.2516 12.9375 18.75 13.4181 18.75 14.0156V19.0468C18.75 20.0396 17.9109 20.8437 16.875 20.8437H4.125C3.08906 20.8437 2.25 20.0396 2.25 19.0468V6.82808C2.25 5.8353 3.08906 5.0312 4.125 5.0312H9.375C9.99844 5.0312 10.5 4.55054 10.5 3.95308C10.5 3.35562 9.99844 2.87495 9.375 2.87495H4.125Z" fill="#0D3253"/>
</g>
<defs>
<clipPath id="clip0_568_426">
<rect width="24" height="23" fill="white"/>
</clipPath>
</defs>
</svg>
