<svg width="15" height="15" viewBox="0 0 15 15" fill="none" xmlns="http://www.w3.org/2000/svg">
<path d="M13.125 7.5H10V3.75L7.5 1.25L5 3.75V7.5H1.875C1.70924 7.5 1.55027 7.56585 1.43306 7.68306C1.31585 7.80027 1.25 7.95924 1.25 8.125V13.75H6.5625V12.1875C6.5625 11.9389 6.66127 11.7004 6.83709 11.5246C7.0129 11.3488 7.25136 11.25 7.5 11.25C7.74864 11.25 7.9871 11.3488 8.16291 11.5246C8.33873 11.7004 8.4375 11.9389 8.4375 12.1875V13.75H13.75V8.125C13.75 7.95924 13.6842 7.80027 13.5669 7.68306C13.4497 7.56585 13.2908 7.5 13.125 7.5ZM3.75 12.5H2.5V11.25H3.75V12.5ZM3.75 10H2.5V8.75H3.75V10ZM7.5 5.625C7.31458 5.625 7.13332 5.57002 6.97915 5.467C6.82498 5.36399 6.70482 5.21757 6.63386 5.04627C6.56291 4.87496 6.54434 4.68646 6.58051 4.5046C6.61669 4.32275 6.70598 4.1557 6.83709 4.02459C6.9682 3.89348 7.13525 3.80419 7.3171 3.76801C7.49896 3.73184 7.68746 3.75041 7.85877 3.82136C8.03007 3.89232 8.17649 4.01248 8.2795 4.16665C8.38252 4.32082 8.4375 4.50208 8.4375 4.6875C8.4375 4.93614 8.33873 5.1746 8.16291 5.35041C7.9871 5.52623 7.74864 5.625 7.5 5.625ZM12.5 12.5H11.25V11.25H12.5V12.5ZM12.5 10H11.25V8.75H12.5V10Z" fill="white"/>
</svg>
