<svg width="21" height="21" viewBox="0 0 21 21" fill="none" xmlns="http://www.w3.org/2000/svg">
<path d="M5.25 19.25C4.52083 19.25 3.90104 18.9948 3.39062 18.4844C2.88021 17.974 2.625 17.3542 2.625 16.625V14H5.25V1.75H18.375V16.625C18.375 17.3542 18.1198 17.974 17.6094 18.4844C17.099 18.9948 16.4792 19.25 15.75 19.25H5.25ZM15.75 17.5C15.9979 17.5 16.2057 17.4161 16.3734 17.2484C16.5411 17.0807 16.625 16.8729 16.625 16.625V3.5H7V14H14.875V16.625C14.875 16.8729 14.9589 17.0807 15.1266 17.2484C15.2943 17.4161 15.5021 17.5 15.75 17.5ZM7.875 7.875V6.125H15.75V7.875H7.875ZM7.875 10.5V8.75H15.75V10.5H7.875ZM5.25 17.5H13.125V15.75H4.375V16.625C4.375 16.8729 4.45885 17.0807 4.62656 17.2484C4.79427 17.4161 5.00208 17.5 5.25 17.5ZM5.25 17.5H4.375H13.125H5.25Z" fill="white"/>
</svg>
