<svg width="18" height="18" viewBox="0 0 18 18" fill="none" xmlns="http://www.w3.org/2000/svg">
<path d="M12 6V3.75H6V6H4.5V2.25H13.5V6H12ZM13.5 9.375C13.7125 9.375 13.8906 9.30313 14.0344 9.15938C14.1781 9.01563 14.25 8.8375 14.25 8.625C14.25 8.4125 14.1781 8.23438 14.0344 8.09063C13.8906 7.94688 13.7125 7.875 13.5 7.875C13.2875 7.875 13.1094 7.94688 12.9656 8.09063C12.8219 8.23438 12.75 8.4125 12.75 8.625C12.75 8.8375 12.8219 9.01563 12.9656 9.15938C13.1094 9.30313 13.2875 9.375 13.5 9.375ZM12 14.25V11.25H6V14.25H12ZM13.5 15.75H4.5V12.75H1.5V8.25C1.5 7.6125 1.71875 7.07812 2.15625 6.64688C2.59375 6.21563 3.125 6 3.75 6H14.25C14.8875 6 15.4219 6.21563 15.8531 6.64688C16.2844 7.07812 16.5 7.6125 16.5 8.25V12.75H13.5V15.75ZM15 11.25V8.25C15 8.0375 14.9281 7.85938 14.7844 7.71563C14.6406 7.57188 14.4625 7.5 14.25 7.5H3.75C3.5375 7.5 3.35938 7.57188 3.21563 7.71563C3.07188 7.85938 3 8.0375 3 8.25V11.25H4.5V9.75H13.5V11.25H15Z" fill="#0F5280"/>
</svg>
