<svg width="18" height="16" viewBox="0 0 18 16" fill="none" xmlns="http://www.w3.org/2000/svg">
<path d="M2 2.5C1.725 2.5 1.5 2.725 1.5 3V13C1.5 13.275 1.725 13.5 2 13.5H16C16.275 13.5 16.5 13.275 16.5 13V3C16.5 2.725 16.275 2.5 16 2.5H2ZM0 3C0 1.89688 0.896875 1 2 1H16C17.1031 1 18 1.89688 18 3V13C18 14.1031 17.1031 15 16 15H2C0.896875 15 0 14.1031 0 13V3ZM3 5C3 4.73478 3.10536 4.48043 3.29289 4.29289C3.48043 4.10536 3.73478 4 4 4C4.26522 4 4.51957 4.10536 4.70711 4.29289C4.89464 4.48043 5 4.73478 5 5C5 5.26522 4.89464 5.51957 4.70711 5.70711C4.51957 5.89464 4.26522 6 4 6C3.73478 6 3.48043 5.89464 3.29289 5.70711C3.10536 5.51957 3 5.26522 3 5ZM6.25 5C6.25 4.58437 6.58437 4.25 7 4.25H14C14.4156 4.25 14.75 4.58437 14.75 5C14.75 5.41563 14.4156 5.75 14 5.75H7C6.58437 5.75 6.25 5.41563 6.25 5ZM6.25 8C6.25 7.58437 6.58437 7.25 7 7.25H14C14.4156 7.25 14.75 7.58437 14.75 8C14.75 8.41563 14.4156 8.75 14 8.75H7C6.58437 8.75 6.25 8.41563 6.25 8ZM6.25 11C6.25 10.5844 6.58437 10.25 7 10.25H14C14.4156 10.25 14.75 10.5844 14.75 11C14.75 11.4156 14.4156 11.75 14 11.75H7C6.58437 11.75 6.25 11.4156 6.25 11ZM4 9C3.73478 9 3.48043 8.89464 3.29289 8.70711C3.10536 8.51957 3 8.26522 3 8C3 7.73478 3.10536 7.48043 3.29289 7.29289C3.48043 7.10536 3.73478 7 4 7C4.26522 7 4.51957 7.10536 4.70711 7.29289C4.89464 7.48043 5 7.73478 5 8C5 8.26522 4.89464 8.51957 4.70711 8.70711C4.51957 8.89464 4.26522 9 4 9ZM3 11C3 10.7348 3.10536 10.4804 3.29289 10.2929C3.48043 10.1054 3.73478 10 4 10C4.26522 10 4.51957 10.1054 4.70711 10.2929C4.89464 10.4804 5 10.7348 5 11C5 11.2652 4.89464 11.5196 4.70711 11.7071C4.51957 11.8946 4.26522 12 4 12C3.73478 12 3.48043 11.8946 3.29289 11.7071C3.10536 11.5196 3 11.2652 3 11Z" fill="white"/>
</svg>
