<svg width="18" height="18" viewBox="0 0 18 18" fill="none" xmlns="http://www.w3.org/2000/svg">
<g clip-path="url(#clip0_620_426)">
<path d="M6.41011 13.7414C5.68444 13.7414 5.10376 13.1607 5.10376 12.5077V9.1657C5.10363 8.99271 5.1376 8.8214 5.20372 8.66155C5.26984 8.5017 5.36681 8.35644 5.48909 8.23409C5.61138 8.11174 5.75658 8.01469 5.91639 7.94848C6.07621 7.88228 6.2475 7.84821 6.42049 7.84825H7.18355C7.18624 7.84825 7.18882 7.84718 7.19072 7.84528C7.19262 7.84338 7.19368 7.8408 7.19368 7.83811V6.60076C7.19368 5.51225 7.86146 4.84424 8.94996 4.84424C10.0385 4.84424 10.7065 5.51201 10.7065 6.60076V7.83884C10.7065 7.84153 10.7075 7.8441 10.7094 7.846C10.7113 7.8479 10.7139 7.84897 10.7166 7.84897H11.4073C11.5803 7.84881 11.7516 7.88275 11.9115 7.94886C12.0714 8.01496 12.2167 8.11193 12.3391 8.23422C12.4614 8.35651 12.5585 8.50172 12.6247 8.66155C12.691 8.82138 12.725 8.99269 12.725 9.1657V12.4976C12.725 12.8275 12.5939 13.1438 12.3607 13.3771C12.1274 13.6104 11.811 13.7414 11.4811 13.7414H6.41011ZM6.42025 8.6475C6.35219 8.6475 6.28481 8.6609 6.22194 8.68694C6.15907 8.71299 6.10194 8.75116 6.05382 8.79928C6.0057 8.84739 5.96753 8.90452 5.94149 8.96739C5.91545 9.03026 5.90205 9.09765 5.90205 9.1657V12.4976C5.90205 12.635 5.95664 12.7668 6.05382 12.864C6.151 12.9612 6.28281 13.0158 6.42025 13.0158H11.3349C11.4724 13.0158 11.6042 12.9612 11.7014 12.864C11.7985 12.7668 11.8531 12.635 11.8531 12.4976V9.1657C11.8531 9.09765 11.8397 9.03026 11.8137 8.96739C11.7876 8.90452 11.7495 8.84739 11.7014 8.79928C11.6532 8.75116 11.5961 8.71299 11.5332 8.68694C11.4704 8.6609 11.403 8.6475 11.3349 8.6475H6.42025ZM9.82569 7.84825C9.82838 7.84825 9.83095 7.84718 9.83285 7.84528C9.83475 7.84338 9.83582 7.8408 9.83582 7.83811V6.60076C9.83582 5.9477 9.53088 5.64277 8.87783 5.64277C8.29715 5.64277 7.99221 5.9477 7.99221 6.60076V7.83884C7.99221 7.84153 7.99328 7.8441 7.99518 7.846C7.99708 7.8479 7.99966 7.84897 8.00234 7.84897L9.82569 7.84825Z" fill="#0F5380"/>
<path d="M11.4802 13.8621H6.41013C5.63669 13.8621 4.98315 13.2418 4.98315 12.5077V9.16571C4.98335 8.7845 5.13482 8.41894 5.40431 8.14931C5.67381 7.87968 6.03929 7.72802 6.4205 7.72764H7.07332V6.60078C7.07332 5.44279 7.79248 4.72363 8.95022 4.72363C10.108 4.72363 10.8274 5.44279 10.8274 6.60078V7.72764H11.4076C11.7889 7.72783 12.1546 7.87941 12.4242 8.14906C12.6939 8.4187 12.8454 8.78437 12.8456 9.16571V12.4976C12.8452 12.8595 12.7012 13.2064 12.4452 13.4623C12.1891 13.7181 11.8421 13.8619 11.4802 13.8621ZM6.4205 7.96889C6.10346 7.96927 5.79951 8.09539 5.57533 8.31957C5.35114 8.54376 5.22503 8.84771 5.22464 9.16475V12.5077C5.22464 13.1108 5.76769 13.6208 6.41037 13.6208H11.4802C11.7781 13.6207 12.0639 13.5023 12.2746 13.2918C12.4854 13.0812 12.604 12.7955 12.6044 12.4976V9.16571C12.6043 8.84832 12.4782 8.54394 12.2538 8.3195C12.0293 8.09507 11.725 7.96895 11.4076 7.96889H10.7169C10.6822 7.96882 10.649 7.95503 10.6245 7.93052C10.6 7.90601 10.5862 7.87279 10.5861 7.83813V6.60078C10.5861 5.57644 9.97456 4.96488 8.95022 4.96488C7.92589 4.96488 7.31457 5.57644 7.31457 6.60078V7.83886C7.31431 7.87343 7.3004 7.9065 7.27586 7.93086C7.25132 7.95522 7.21814 7.96889 7.18357 7.96889H6.4205ZM11.3349 13.1364H6.4205C6.25114 13.1362 6.08876 13.0688 5.969 12.9491C5.84924 12.8293 5.78187 12.6669 5.78168 12.4976V9.16571C5.78187 8.99635 5.84924 8.83397 5.969 8.71421C6.08876 8.59445 6.25114 8.52708 6.4205 8.52689H11.3349C11.5043 8.52708 11.6667 8.59445 11.7865 8.71421C11.9062 8.83397 11.9736 8.99635 11.9738 9.16571V12.4976C11.9736 12.6669 11.9062 12.8293 11.7865 12.9491C11.6667 13.0688 11.5043 13.1362 11.3349 13.1364ZM6.4205 8.76814C6.3151 8.76827 6.21405 8.8102 6.13952 8.88473C6.06499 8.95926 6.02306 9.06031 6.02293 9.16571V12.4976C6.02306 12.603 6.06499 12.704 6.13952 12.7786C6.21405 12.8531 6.3151 12.895 6.4205 12.8952H11.3349C11.4404 12.895 11.5414 12.8531 11.6159 12.7786C11.6905 12.704 11.7324 12.603 11.7325 12.4976V9.16571C11.7324 9.06031 11.6905 8.95926 11.6159 8.88473C11.5414 8.8102 11.4404 8.76827 11.3349 8.76814H6.4205ZM9.82571 7.96889H8.00236C7.9677 7.96882 7.93448 7.95503 7.90997 7.93052C7.88547 7.90601 7.87167 7.87279 7.87161 7.83813V6.60078C7.87161 5.89513 8.21948 5.52216 8.87785 5.52216C9.59363 5.52216 9.95646 5.88403 9.95646 6.60078V7.83886C9.95621 7.87339 9.94233 7.90643 9.91784 7.93078C9.89335 7.95513 9.86024 7.96883 9.82571 7.96889ZM8.11285 7.72764H9.71522V6.60078C9.71522 6.01382 9.4648 5.76341 8.87785 5.76341C8.35603 5.76341 8.11285 6.02878 8.11285 6.60078V7.72764Z" fill="#0F5380"/>
<path d="M8.95815 17.3169C4.46685 17.3169 0.807373 13.6574 0.807373 9.16632C0.807373 4.67526 4.46685 1.01579 8.95815 1.01579C10.8546 1.01579 12.5877 1.66981 14.0762 2.81573C14.0791 2.818 14.0826 2.81932 14.0863 2.81952C14.09 2.81971 14.0936 2.81877 14.0967 2.81681C14.0998 2.81486 14.1023 2.81199 14.1037 2.8086C14.1051 2.80522 14.1055 2.80147 14.1047 2.79788L13.7824 1.26716C13.7822 1.26596 13.7822 1.26475 13.7824 1.26355C13.7824 1.18032 13.7824 1.01747 13.8637 0.934485L13.8666 0.930384C13.9491 0.765532 14.0317 0.683105 14.1146 0.683105H14.1966C14.3628 0.683105 14.6125 0.849325 14.6125 1.01579L15.1944 4.00725C15.1945 4.00837 15.1945 4.0095 15.1944 4.01063V4.09217C15.1944 4.34162 15.0279 4.50784 14.8617 4.50784L11.8702 5.08972H11.7853C11.6191 5.08972 11.3694 4.92326 11.3694 4.75704C11.3694 4.67381 11.3694 4.5076 11.4526 4.42437C11.5359 4.34113 11.6189 4.25815 11.7021 4.25815L13.8296 3.84803C13.833 3.84741 13.836 3.84589 13.8385 3.84363C13.841 3.84137 13.8428 3.83846 13.8437 3.83523C13.8447 3.83199 13.8447 3.82857 13.8438 3.82533C13.8428 3.8221 13.8411 3.81918 13.8386 3.8169C12.2751 2.3658 10.1448 1.71275 7.9811 1.99115C4.67408 2.42008 2.1019 5.08707 1.76151 8.40446C1.33281 12.5845 4.47988 16.1427 8.51232 16.3883C12.6859 16.6426 16.1948 13.289 16.1939 9.1089C16.1939 8.68672 16.1912 8.32316 16.134 7.96611C16.1196 7.87565 16.0921 7.75502 16.0735 7.66407C16.0593 7.6007 16.0519 7.53601 16.0513 7.47107C16.0545 7.44431 16.0627 7.41837 16.0754 7.3946C16.0971 7.35214 16.1784 7.2016 16.4424 7.17145H16.5256C16.7748 7.17145 16.9217 7.3519 17.024 7.66721V7.6701C17.1058 7.8824 17.1895 8.52942 17.19 9.16583C17.1946 13.6576 13.4475 17.3164 8.95622 17.3164L8.95815 17.3169Z" fill="#0F5380"/>
<path d="M8.95817 17.4375C4.3986 17.4375 0.687012 13.7271 0.687012 9.16634C0.687012 4.60556 4.39739 0.89518 8.95817 0.89518C9.89668 0.894326 10.8283 1.05577 11.7118 1.37237C12.504 1.65953 13.2513 2.05805 13.9312 2.55592L13.6659 1.29179C13.6639 1.28243 13.6629 1.27289 13.663 1.26332C13.663 1.17117 13.663 0.982994 13.7665 0.863094C13.8106 0.775521 13.9262 0.5625 14.1146 0.5625H14.1966C14.4048 0.5625 14.7218 0.758393 14.7329 1.00253L15.3119 3.98507C15.3136 3.99381 15.3145 4.0027 15.3145 4.01161V4.09315C15.3145 4.38385 15.1179 4.62148 14.874 4.62944L11.892 5.20844C11.8832 5.21018 11.8743 5.21107 11.8654 5.21109H11.7839C11.5721 5.21109 11.2474 5.00796 11.2474 4.75779C11.2474 4.66129 11.2474 4.45816 11.3661 4.33971C11.4626 4.24321 11.5607 4.14502 11.6874 4.13851L13.6048 3.77109C12.0941 2.4505 10.0624 1.84738 7.99656 2.11324C6.41705 2.31985 4.95393 3.05481 3.84518 4.19858C2.7376 5.34572 2.04616 6.83077 1.88118 8.41678C1.68023 10.3757 2.26718 12.2753 3.53204 13.766C4.14293 14.4876 4.89155 15.0802 5.73414 15.5092C7.0354 16.1737 8.51054 16.4188 9.95677 16.2108C11.403 16.0029 12.7493 15.3521 13.8106 14.3478C14.5262 13.676 15.0963 12.8643 15.4855 11.9632C15.8747 11.0621 16.0749 10.0907 16.0735 9.10916C16.0735 8.66333 16.0692 8.32173 16.0154 7.98543C16.0055 7.92367 15.9883 7.84334 15.9734 7.77265C15.9671 7.74322 15.9611 7.71475 15.9558 7.6887C15.9423 7.62985 15.9347 7.56981 15.9331 7.50945L15.9314 7.47929C15.9314 7.46506 15.928 7.42236 15.9693 7.34106C16.0518 7.17942 16.2156 7.07714 16.4303 7.05277H16.5271C16.9524 7.05277 17.0937 7.4887 17.1403 7.63176L17.142 7.63683C17.2363 7.894 17.3123 8.57432 17.313 9.1673C17.3152 11.3426 16.4556 13.4022 14.8926 14.9669C14.1261 15.7362 13.218 16.3499 12.2184 16.7743C11.1877 17.2135 10.0786 17.4391 8.95817 17.4375ZM8.95817 1.13643C4.53032 1.13643 0.928018 4.73873 0.928018 9.16634C0.928018 13.5939 4.53032 17.1962 8.95817 17.1962C10.0455 17.1972 11.1217 16.9777 12.1219 16.5512C13.0934 16.1393 13.9761 15.5433 14.7213 14.7961C16.2388 13.2762 17.0735 11.278 17.0713 9.1673C17.0713 8.54247 16.989 7.91282 16.9133 7.71475L16.9085 7.69955C16.791 7.34154 16.6494 7.29329 16.5266 7.29329H16.4506C16.3186 7.3097 16.2289 7.36253 16.184 7.45059C16.1797 7.45904 16.1759 7.46774 16.1727 7.47664V7.49546C16.1735 7.54422 16.1796 7.59274 16.1908 7.64021C16.1961 7.66578 16.2019 7.69352 16.2081 7.72223C16.2238 7.79581 16.2414 7.87928 16.2525 7.94731C16.3092 8.30122 16.3135 8.652 16.3138 9.10916C16.3148 10.621 15.8543 12.0972 14.9939 13.3403C14.1334 14.5834 12.9139 15.5342 11.4985 16.0655C10.549 16.4175 9.53688 16.569 8.52594 16.5102C7.51501 16.4515 6.52721 16.184 5.62486 15.7244C4.75383 15.2809 3.97995 14.6683 3.34845 13.9223C2.03993 12.381 1.43464 10.417 1.64163 8.39217C1.81217 6.7523 2.52705 5.2168 3.6722 4.03067C4.81717 2.84499 6.33162 2.08436 7.9664 1.87392C10.1733 1.58997 12.3438 2.26691 13.9213 3.73152C13.9401 3.74895 13.9537 3.77124 13.9606 3.79592C13.9675 3.8206 13.9674 3.84671 13.9603 3.87134C13.9533 3.89598 13.9396 3.91818 13.9207 3.93548C13.9018 3.95279 13.8785 3.96453 13.8533 3.96939L11.7144 4.37951H11.7028C11.6695 4.37951 11.5844 4.46467 11.5388 4.51051C11.4932 4.55635 11.4905 4.70351 11.4905 4.75779C11.4905 4.84102 11.6698 4.96984 11.7858 4.96984H11.8582L14.8523 4.38747H14.8639C14.9664 4.38747 15.076 4.26878 15.076 4.09243V4.02005L14.4931 1.02738V1.0158C14.4931 0.932573 14.3139 0.803747 14.1978 0.803747H14.1146C14.1146 0.803747 14.061 0.811467 13.9739 0.984441L13.9698 0.992644L13.9575 1.00977L13.9498 1.01822C13.9054 1.06381 13.9016 1.1924 13.9016 1.25247L14.2215 2.77232C14.2273 2.80003 14.2245 2.82886 14.2134 2.85493C14.2024 2.881 14.1836 2.90305 14.1596 2.91812C14.1356 2.93318 14.1076 2.94053 14.0793 2.93918C14.0511 2.93783 14.0239 2.92784 14.0014 2.91056C13.2572 2.3376 12.4589 1.89732 11.6283 1.5989C10.7715 1.29209 9.8682 1.13563 8.95817 1.13643Z" fill="#0F5380"/>
</g>
<defs>
<clipPath id="clip0_620_426">
<rect width="18" height="18" fill="white"/>
</clipPath>
</defs>
</svg>
