<svg width="15" height="15" viewBox="0 0 15 15" fill="none" xmlns="http://www.w3.org/2000/svg">
<path d="M9.1875 14.55C8.9 14.8375 8.54375 14.9813 8.11875 14.9813C7.69375 14.9813 7.3375 14.8375 7.05 14.55L0.45 7.95C0.3125 7.8125 0.203125 7.65 0.121875 7.4625C0.040625 7.275 0 7.075 0 6.8625V1.5C0 1.0875 0.146875 0.734375 0.440625 0.440625C0.734375 0.146875 1.0875 0 1.5 0H6.8625C7.075 0 7.275 0.040625 7.4625 0.121875C7.65 0.203125 7.8125 0.3125 7.95 0.45L14.55 7.06875C14.8375 7.35625 14.9813 7.70938 14.9813 8.12813C14.9813 8.54688 14.8375 8.9 14.55 9.1875L9.1875 14.55ZM8.11875 13.5L13.4813 8.1375L6.8625 1.5H1.5V6.8625L8.11875 13.5ZM3.375 4.5C3.6875 4.5 3.95313 4.39062 4.17188 4.17188C4.39062 3.95313 4.5 3.6875 4.5 3.375C4.5 3.0625 4.39062 2.79688 4.17188 2.57812C3.95313 2.35938 3.6875 2.25 3.375 2.25C3.0625 2.25 2.79688 2.35938 2.57812 2.57812C2.35938 2.79688 2.25 3.0625 2.25 3.375C2.25 3.6875 2.35938 3.95313 2.57812 4.17188C2.79688 4.39062 3.0625 4.5 3.375 4.5Z" fill="white"/>
</svg>
