<svg width="22" height="22" viewBox="0 0 22 22" fill="none" xmlns="http://www.w3.org/2000/svg">
<path d="M18.6359 3.364C18.4625 3.19182 18.2449 3.07077 18.0073 3.01417C17.7696 2.95757 17.5208 2.9676 17.2884 3.04316L3.87757 7.5165C3.62885 7.5953 3.40907 7.74606 3.24598 7.9497C3.08289 8.15335 2.9838 8.40077 2.96124 8.6607C2.93868 8.92063 2.99366 9.18138 3.11922 9.41009C3.2448 9.6388 3.43532 9.82516 3.66674 9.9457L9.2309 12.6957L11.9809 18.2782C12.0915 18.4966 12.2606 18.6802 12.4694 18.808C12.6782 18.9359 12.9186 19.0032 13.1634 19.0024H13.2551C13.5173 18.983 13.7677 18.8853 13.9736 18.7218C14.1796 18.5583 14.3317 18.3367 14.4101 18.0857L18.9476 4.7115C19.0286 4.48043 19.0424 4.23111 18.9872 3.99254C18.932 3.75399 18.8102 3.53602 18.6359 3.364ZM4.4459 8.7815L16.1517 4.8765L9.65257 11.3757L4.4459 8.7815ZM13.2276 17.554L10.6242 12.3474L17.1234 5.84816L13.2276 17.554Z" fill="#0D3253"/>
</svg>
