<svg width="15" height="12" viewBox="0 0 15 12" fill="none" xmlns="http://www.w3.org/2000/svg">
<g clip-path="url(#clip0_127_5137)">
<path d="M8.99414 0.815609C8.65723 0.93514 8.4375 1.20467 8.4375 1.49998V2.99998H5.15625C2.30859 2.99998 0 4.84686 0 7.12498C0 9.78045 2.3877 10.9664 2.93555 11.2055C3.00879 11.2383 3.09082 11.25 3.17285 11.25C3.49219 11.25 3.75 11.0414 3.75 10.7883C3.75 10.6125 3.62402 10.4508 3.46289 10.3312C3.1875 10.1226 2.8125 9.71248 2.8125 8.99998C2.8125 7.7578 4.07227 6.74998 5.625 6.74998H8.4375V8.24998C8.4375 8.5453 8.6543 8.81483 8.99414 8.93436C9.33398 9.05389 9.72656 9.00467 10.002 8.8078L14.6895 5.4328C14.8857 5.28983 15 5.08826 15 4.87498C15 4.6617 14.8887 4.46014 14.6895 4.31717L10.002 0.942171C9.72656 0.742953 9.33105 0.693734 8.99414 0.815609Z" fill="white"/>
<path d="M3 5H9" stroke="white" stroke-width="2" stroke-linecap="round" stroke-linejoin="round"/>
</g>
<defs>
<clipPath id="clip0_127_5137">
<rect width="15" height="12" fill="white"/>
</clipPath>
</defs>
</svg>
