<svg width="16" height="16" viewBox="0 0 16 16" fill="none" xmlns="http://www.w3.org/2000/svg">
<g clip-path="url(#clip0_597_427)">
<path d="M9.75 6.30625C9.75 5.7625 10.0375 5.26875 10.3719 4.8375C10.7656 4.32813 11 3.69063 11 3C11 1.34375 9.65625 0 8 0C6.34375 0 5 1.34375 5 3C5 3.69063 5.23438 4.32813 5.62813 4.8375C5.9625 5.26875 6.25 5.7625 6.25 6.30625C6.25 7.24063 5.49063 8 4.55625 8H3.5C1.56562 8 0 9.56562 0 11.5C0 12.1531 0.41875 12.7094 1 12.9156V14.5C1 15.3281 1.67188 16 2.5 16H13.5C14.3281 16 15 15.3281 15 14.5V12.9156C15.5813 12.7094 16 12.1531 16 11.5C16 9.56562 14.4344 8 12.5 8H11.4438C10.5094 8 9.75 7.24063 9.75 6.30625ZM13 13V14H3V13H13Z" fill="#0F5380"/>
</g>
<defs>
<clipPath id="clip0_597_427">
<rect width="16" height="16" fill="white"/>
</clipPath>
</defs>
</svg>
