<svg width="14" height="14" viewBox="0 0 14 14" fill="none" xmlns="http://www.w3.org/2000/svg">
<path d="M3.75 4.5C3.9625 4.5 4.14062 4.42813 4.28438 4.28438C4.42813 4.14062 4.5 3.9625 4.5 3.75C4.5 3.5375 4.42813 3.35938 4.28438 3.21563C4.14062 3.07188 3.9625 3 3.75 3C3.5375 3 3.35938 3.07188 3.21563 3.21563C3.07188 3.35938 3 3.5375 3 3.75C3 3.9625 3.07188 4.14062 3.21563 4.28438C3.35938 4.42813 3.5375 4.5 3.75 4.5ZM3.75 7.5C3.9625 7.5 4.14062 7.42813 4.28438 7.28438C4.42813 7.14063 4.5 6.9625 4.5 6.75C4.5 6.5375 4.42813 6.35938 4.28438 6.21563C4.14062 6.07188 3.9625 6 3.75 6C3.5375 6 3.35938 6.07188 3.21563 6.21563C3.07188 6.35938 3 6.5375 3 6.75C3 6.9625 3.07188 7.14063 3.21563 7.28438C3.35938 7.42813 3.5375 7.5 3.75 7.5ZM3.75 10.5C3.9625 10.5 4.14062 10.4281 4.28438 10.2844C4.42813 10.1406 4.5 9.9625 4.5 9.75C4.5 9.5375 4.42813 9.35938 4.28438 9.21563C4.14062 9.07188 3.9625 9 3.75 9C3.5375 9 3.35938 9.07188 3.21563 9.21563C3.07188 9.35938 3 9.5375 3 9.75C3 9.9625 3.07188 10.1406 3.21563 10.2844C3.35938 10.4281 3.5375 10.5 3.75 10.5ZM1.5 13.5C1.0875 13.5 0.734375 13.3531 0.440625 13.0594C0.146875 12.7656 0 12.4125 0 12V1.5C0 1.0875 0.146875 0.734375 0.440625 0.440625C0.734375 0.146875 1.0875 0 1.5 0H9.75L13.5 3.75V12C13.5 12.4125 13.3531 12.7656 13.0594 13.0594C12.7656 13.3531 12.4125 13.5 12 13.5H1.5ZM1.5 12H12V4.5H9V1.5H1.5V12Z" fill="white"/>
</svg>
