<svg width="13" height="15" viewBox="0 0 13 15" fill="none" xmlns="http://www.w3.org/2000/svg">
<g clip-path="url(#clip0_577_435)">
<path d="M8.80309 3.75C8.80309 3.1284 8.55902 2.53226 8.12457 2.09272C7.69012 1.65318 7.10089 1.40625 6.48649 1.40625C5.87209 1.40625 5.28285 1.65318 4.8484 2.09272C4.41395 2.53226 4.16988 3.1284 4.16988 3.75C4.16988 4.3716 4.41395 4.96774 4.8484 5.40728C5.28285 5.84682 5.87209 6.09375 6.48649 6.09375C7.10089 6.09375 7.69012 5.84682 8.12457 5.40728C8.55902 4.96774 8.80309 4.3716 8.80309 3.75ZM2.77992 3.75C2.77992 2.75544 3.17043 1.80161 3.86555 1.09835C4.56067 0.395088 5.50344 0 6.48649 0C7.46953 0 8.41231 0.395088 9.10742 1.09835C9.80254 1.80161 10.1931 2.75544 10.1931 3.75C10.1931 4.74456 9.80254 5.69839 9.10742 6.40165C8.41231 7.10491 7.46953 7.5 6.48649 7.5C5.50344 7.5 4.56067 7.10491 3.86555 6.40165C3.17043 5.69839 2.77992 4.74456 2.77992 3.75ZM1.42761 13.5938H11.5454C11.2876 11.7393 9.71236 10.3125 7.80985 10.3125H5.16313C3.26062 10.3125 1.68533 11.7393 1.42761 13.5938ZM0 14.1299C0 11.2441 2.31081 8.90625 5.16313 8.90625H7.80985C10.6622 8.90625 12.973 11.2441 12.973 14.1299C12.973 14.6104 12.5878 15 12.1129 15H0.860039C0.385135 15 0 14.6104 0 14.1299Z" fill="white"/>
</g>
<defs>
<clipPath id="clip0_577_435">
<rect width="12.973" height="15" fill="white"/>
</clipPath>
</defs>
</svg>
