<svg width="22" height="22" viewBox="0 0 22 22" fill="none" xmlns="http://www.w3.org/2000/svg">
<path d="M11.0001 10.0833C11.9725 10.0833 12.9052 9.69703 13.5928 9.00939C14.2804 8.32176 14.6667 7.38913 14.6667 6.41667C14.6667 5.44421 14.2804 4.51158 13.5928 3.82394C12.9052 3.13631 11.9725 2.75 11.0001 2.75C10.0276 2.75 9.09499 3.13631 8.40736 3.82394C7.71972 4.51158 7.33341 5.44421 7.33341 6.41667C7.33341 7.38913 7.71972 8.32176 8.40736 9.00939C9.09499 9.69703 10.0276 10.0833 11.0001 10.0833ZM11.0001 11.9167C9.57681 11.9156 8.17291 12.2465 6.8999 12.883C5.62689 13.5195 4.51985 14.4441 3.66675 15.5833C4.51985 16.7226 5.62689 17.6472 6.8999 18.2837C8.17291 18.9202 9.57681 19.2511 11.0001 19.25C12.4233 19.2511 13.8273 18.9202 15.1003 18.2837C16.3733 17.6472 17.4803 16.7226 18.3334 15.5833C17.4803 14.4441 16.3733 13.5195 15.1003 12.883C13.8273 12.2465 12.4233 11.9156 11.0001 11.9167Z" fill="#0F5380"/>
</svg>
