<svg width="19" height="19" viewBox="0 0 19 19" fill="none" xmlns="http://www.w3.org/2000/svg">
<path d="M17.3267 18.9719L10.9217 12.5669C10.4134 12.9735 9.82882 13.2955 9.16799 13.5327C8.50716 13.7699 7.80396 13.8885 7.05841 13.8885C5.21146 13.8885 3.64834 13.2489 2.36903 11.9696C1.08973 10.6903 0.450073 9.12715 0.450073 7.28021C0.450073 5.43326 1.08973 3.87014 2.36903 2.59083C3.64834 1.31153 5.21146 0.671875 7.05841 0.671875C8.90535 0.671875 10.4685 1.31153 11.7478 2.59083C13.0271 3.87014 13.6667 5.43326 13.6667 7.28021C13.6667 8.02576 13.5481 8.72896 13.3109 9.38979C13.0737 10.0506 12.7517 10.6352 12.3451 11.1435L18.7501 17.5485L17.3267 18.9719ZM7.05841 11.8552C8.32924 11.8552 9.40945 11.4104 10.299 10.5208C11.1886 9.63125 11.6334 8.55104 11.6334 7.28021C11.6334 6.00937 11.1886 4.92917 10.299 4.03958C9.40945 3.15 8.32924 2.70521 7.05841 2.70521C5.78757 2.70521 4.70736 3.15 3.81778 4.03958C2.9282 4.92917 2.48341 6.00937 2.48341 7.28021C2.48341 8.55104 2.9282 9.63125 3.81778 10.5208C4.70736 11.4104 5.78757 11.8552 7.05841 11.8552Z" fill="#A4A4A4"/>
</svg>
